HIERARCHY
ROOT Hips
{
	OFFSET 0.00000 0.00000 0.00000
	CHANNELS 6 Xposition Yposition Zposition Zrotation Yrotation Xrotation 
	JOINT LHipJoint
	{
		OFFSET 0 0 0
		CHANNELS 3 Zrotation Yrotation Xrotation
		JOINT LeftHip
		{
			OFFSET 1.80322 -1.53100 0.99595
			CHANNELS 3 Zrotation Yrotation Xrotation
			JOINT LeftKnee
			{
				OFFSET 2.25177 -6.18669 0.00000
				CHANNELS 3 Zrotation Yrotation Xrotation
				JOINT LeftAnkle
				{
					OFFSET 2.26601 -6.22582 0.00000
					CHANNELS 3 Zrotation Yrotation Xrotation
					JOINT LeftToe
					{
						OFFSET 0.23701 -0.65119 2.15848
						CHANNELS 3 Zrotation Yrotation Xrotation
						End Site
						{
							OFFSET 0.00000 -0.00000 1.12949
						}
					}
				}
			}
		}
	}
	JOINT RHipJoint
	{
		OFFSET 0 0 0
		CHANNELS 3 Zrotation Yrotation Xrotation
		JOINT RightHip
		{
			OFFSET -1.93977 -1.53100 0.99595
			CHANNELS 3 Zrotation Yrotation Xrotation
			JOINT RightKnee
			{
				OFFSET -2.28036 -6.26523 0.00000
				CHANNELS 3 Zrotation Yrotation Xrotation
				JOINT RightAnkle
				{
					OFFSET -2.25490 -6.19528 0.00000
					CHANNELS 3 Zrotation Yrotation Xrotation
					JOINT RightToe
					{
						OFFSET -0.28375 -0.77960 2.23137
						CHANNELS 3 Zrotation Yrotation Xrotation
						End Site
						{
							OFFSET -0.00000 -0.00000 1.17899
						}
					}
				}
			}
		}
	}
	JOINT lowerback
	{
		OFFSET 0 0 0
		CHANNELS 3 Zrotation Yrotation Xrotation
		JOINT Chest
		{
			OFFSET -0.00088 2.12090 -0.02806
			CHANNELS 3 Zrotation Yrotation Xrotation
			JOINT Chest2
			{
				OFFSET -0.00286 2.09666 0.12974
				CHANNELS 3 Zrotation Yrotation Xrotation
				JOINT lowerneck
				{
					OFFSET 0 0 0
					CHANNELS 3 Zrotation Yrotation Xrotation
					JOINT Neck
					{
						OFFSET 0.07328 1.83526 0.07290
						CHANNELS 3 Zrotation Yrotation Xrotation
						JOINT Head
						{
							OFFSET -0.06683 1.74974 -0.49542
							CHANNELS 3 Zrotation Yrotation Xrotation
							End Site
							{
								OFFSET -0.03398 1.85163 -0.17573
							}
						}
					}
				}
				JOINT LeftCollar
				{
					OFFSET 0 0 0
					CHANNELS 3 Zrotation Yrotation Xrotation
					JOINT LeftShoulder
					{
						OFFSET 3.02113 1.18018 0.40602
CHANNELS 3 Zrotation Xrotation Yrotation
						JOINT LeftElbow
						{
OFFSET 0 -4.585380 -0.000000
CHANNELS 3 Zrotation Xrotation Yrotation
							JOINT LeftWrist
							{
OFFSET 0 -2.689350 -0.000000
CHANNELS 3 Zrotation Xrotation Yrotation
								JOINT lhand
								{
									OFFSET 0 0 0
CHANNELS 3 Zrotation Xrotation Yrotation
									JOINT LFingers
									{
OFFSET 0 -0.585060 -0.000000
CHANNELS 3 Zrotation Xrotation Yrotation
										End Site
										{
OFFSET 0 -0.471690 -0.000000
										}
									}
								}
								JOINT LThumb
								{
OFFSET 0 0.000000 0.000000
CHANNELS 3 Zrotation Xrotation Yrotation
									End Site
									{
OFFSET 0 -0.478890 0.478890
									}
								}
							}
						}
					}
				}
				JOINT RightCollar
				{
					OFFSET 0 0 0
					CHANNELS 3 Zrotation Yrotation Xrotation
					JOINT RightShoulder
					{
						OFFSET -2.95074 1.18843 0.31430
CHANNELS 3 Zrotation Xrotation Yrotation
						JOINT RightElbow
						{
OFFSET 0 -4.474500 -0.000000
CHANNELS 3 Zrotation Xrotation Yrotation
							JOINT RightWrist
							{
OFFSET 0 -2.938960 -0.000000
CHANNELS 3 Zrotation Xrotation Yrotation
								JOINT rhand
								{
									OFFSET 0 0 0
CHANNELS 3 Zrotation Xrotation Yrotation
									JOINT RFingers
									{
OFFSET 0 -0.405090 -0.000000
CHANNELS 3 Zrotation Xrotation Yrotation
										End Site
										{
OFFSET 0 -0.326600 -0.000000
										}
									}
								}
								JOINT RThumb
								{
OFFSET 0 0.000000 0.000000
CHANNELS 3 Zrotation Xrotation Yrotation
									End Site
									{
OFFSET 0 -0.331580 0.331580
									}
								}
							}
						}
					}
				}
			}
		}
	}
}
MOTION
Frames: 9
Frame Time: 0.008333333333333333
0.331100 15.968200 6.265500 0.344000 -2.571500 8.674800 0.000000 0.000000 0.000000 -20.232100 -19.163600 3.999200 0.035200 1.211800 3.331800 -1.340500 20.753600 -14.003000 0.002700 0.333200 0.915400 0.000000 0.000000 0.000000 18.318800 11.923200 -6.674200 -0.905400 -6.063600 16.969000 -0.237100 -9.208600 -16.681400 -0.030800 1.133300 -3.115700 0.766300 -1.353200 -6.116800 0.258600 -1.829800 -8.113700 -0.188900 -0.955800 -5.007000 8.762800 3.294800 -10.201500 -6.961500 4.982000 32.298700 -3.547600 2.402600 12.834300 -0.000000 -0.000000 0.000000 -0.861400 12.153500 -11.312000 16.386200 -26.041500 3.813900 5.366900 19.581400 -14.819500 0.000000 0.000000 0.000000 -7.125000 0.000000 0.000000 -20.205100 43.882300 -0.582400 -0.000000 -0.000000 0.000000 -2.307700 7.141200 19.788500 -13.553600 -22.093000 -2.657900 -9.872300 11.708800 9.676500 0.000000 0.000000 0.000000 7.125000 0.000000 -0.000000 14.824200 39.371300 2.110400
0.327192 15.968827 6.267654 0.327841 -2.608083 8.680155 0.000000 0.000000 0.000000 -20.206514 -19.116357 4.009254 0.034811 1.204692 3.312169 -1.337760 20.740577 -14.018697 0.002873 0.345645 0.949660 0.000000 0.000000 0.000000 18.347648 11.904662 -6.667503 -0.902254 -6.053362 16.939333 -0.239454 -9.151027 -16.647201 -0.029873 1.115980 -3.068058 0.722139 -1.332675 -6.198612 0.281130 -1.801232 -8.126714 -0.142518 -0.938367 -4.972432 8.445998 2.962842 -10.258999 -6.374315 4.392863 33.019152 -3.365212 2.177587 13.068824 0.000000 0.000000 0.000000 -1.139246 12.287240 -11.431377 16.447418 -26.123541 3.840808 5.624771 19.487660 -14.903391 0.000000 0.000000 0.000000 -7.125000 0.000000 0.000000 -20.010313 43.989578 -0.520950 0.000000 0.000000 0.000000 -2.014847 7.008869 21.603268 -14.039440 -22.791053 -2.843383 -9.757736 11.133785 9.162666 0.000000 0.000000 0.000000 7.125000 0.000000 0.000000 14.799903 38.859506 2.298235
0.323784 15.969508 6.270362 0.312413 -2.571523 8.733681 0.000000 0.000000 0.000000 -20.160125 -19.167908 3.958945 0.035254 1.212498 3.333662 -1.337384 20.741205 -14.031650 0.002700 0.333425 0.916065 0.000000 0.000000 0.000000 18.373003 11.927675 -6.678365 -0.897821 -6.038910 16.897238 -0.236784 -9.193150 -16.659895 -0.028446 1.088740 -2.993051 0.675409 -1.316372 -6.274889 0.318421 -1.777331 -8.119559 -0.079548 -0.922572 -4.919001 8.104272 2.671860 -10.370514 -5.866667 3.881444 33.607145 -3.192998 1.974512 13.276868 0.000000 0.000000 0.000000 -1.252146 12.418324 -10.962480 16.227368 -25.827930 3.744452 6.005002 19.871034 -15.270788 0.000000 0.000000 0.000000 -7.125000 0.000000 0.000000 -19.809104 44.378065 -0.317008 0.000000 0.000000 0.000000 -1.836880 7.180025 21.889392 -14.413859 -23.323294 -2.989982 -10.634365 8.474978 9.174230 0.000000 0.000000 0.000000 7.125000 0.000000 0.000000 14.064690 38.936801 2.151076
0.321838 15.970162 6.272081 0.311000 -2.542534 8.773713 0.000000 0.000000 0.000000 -20.143364 -19.190562 3.975044 0.033375 1.179902 3.243903 -1.341949 20.758691 -13.985911 0.002500 0.323575 0.888989 0.000000 0.000000 0.000000 18.377200 11.947028 -6.700359 -0.896800 -6.035600 16.887881 -0.235700 -9.225285 -16.681734 -0.027338 1.067311 -2.934088 0.677583 -1.297298 -6.282894 0.336855 -1.751243 -8.110915 -0.061525 -0.908934 -4.904636 7.822661 2.466407 -10.480572 -5.510742 3.528191 34.099474 -3.065698 1.830543 13.469703 0.000000 0.000000 0.000000 -1.209711 12.580014 -9.860358 15.640928 -25.031321 3.492648 5.593726 20.250058 -15.437337 0.000000 0.000000 0.000000 -7.125000 0.000000 0.000000 -20.229565 44.488231 -0.266887 0.000000 0.000000 0.000000 -1.802383 7.283374 20.074293 -14.002739 -22.738655 -2.829156 -10.726859 7.772196 9.449323 0.000000 0.000000 0.000000 7.125000 0.000000 0.000000 14.048970 39.214692 2.050095
0.321200 15.971108 6.274533 0.352483 -2.487044 8.837973 0.000000 0.000000 0.000000 -20.183058 -19.202747 4.117348 0.026226 1.045838 2.875005 -1.358213 20.812677 -13.784887 0.002592 0.329756 0.905951 0.000000 0.000000 0.000000 18.326813 11.963439 -6.765604 -0.901365 -6.050513 16.931114 -0.236933 -9.264805 -16.741795 -0.026908 1.059005 -2.911256 0.730265 -1.266916 -6.232897 0.315266 -1.712017 -8.182442 -0.110141 -0.893128 -5.011044 7.543765 2.301016 -10.584156 -5.319800 3.290638 34.555523 -2.987083 1.717490 13.662753 0.000000 0.000000 0.000000 -1.031006 12.788585 -8.227611 15.056916 -24.225302 3.249296 3.941533 20.294363 -15.635169 0.000000 0.000000 0.000000 -7.125000 0.000000 0.000000 -21.745652 44.484947 -0.290714 0.000000 0.000000 0.000000 -1.691944 7.405831 16.831925 -13.245493 -21.645814 -2.543112 -12.399747 6.488412 9.803956 0.000000 0.000000 0.000000 7.125000 0.000000 0.000000 12.707556 39.697500 1.692434
0.320630 15.972670 6.279711 0.396452 -2.453402 8.968463 0.000000 0.000000 0.000000 -20.217406 -19.190058 4.264936 0.017772 0.861143 2.366869 -1.382456 20.900112 -13.501381 0.002300 0.311072 0.854756 0.000000 0.000000 0.000000 18.256033 12.013357 -6.898868 -0.905987 -6.065598 16.974858 -0.237741 -9.295937 -16.787345 -0.026830 1.057291 -2.906490 0.792867 -1.244606 -6.205857 0.292753 -1.683870 -8.353393 -0.164201 -0.884235 -5.211389 7.407998 2.206521 -10.570933 -5.308273 3.190597 34.873937 -2.982722 1.660623 13.789630 0.000000 0.000000 0.000000 -0.745602 13.278092 -7.685910 14.613765 -23.605293 3.069598 1.874592 20.976620 -15.714797 0.000000 0.000000 0.000000 -7.125000 0.000000 0.000000 -23.566949 44.323140 -0.418166 0.000000 0.000000 0.000000 -1.778681 7.832623 14.607862 -12.767749 -20.946022 -2.369645 -12.818143 7.234400 10.758309 0.000000 0.000000 0.000000 7.125000 0.000000 0.000000 12.562820 40.683525 1.361519
0.317975 15.974749 6.283836 0.437693 -2.457821 9.104739 0.000000 0.000000 0.000000 -20.251596 -19.078818 4.561479 0.007440 0.556696 1.529716 -1.415529 21.015642 -13.067583 0.002700 0.338123 0.928981 0.000000 0.000000 0.000000 18.193467 12.124493 -7.028398 -0.911225 -6.082598 17.024294 -0.237636 -9.343728 -16.839296 -0.025938 1.039466 -2.857471 0.785415 -1.253694 -6.127887 0.302327 -1.694468 -8.613002 -0.143688 -0.890372 -5.533230 7.274969 2.080533 -10.515240 -5.329138 3.058809 35.329541 -3.001572 1.587269 13.968349 0.000000 0.000000 0.000000 -0.656720 13.908629 -7.555396 14.480813 -23.417848 3.016560 -0.993598 21.019749 -15.826603 0.000000 0.000000 0.000000 -7.125000 0.000000 0.000000 -26.067395 44.098675 -0.624746 0.000000 0.000000 0.000000 -1.964257 8.222424 13.571636 -12.202054 -20.106923 -2.171232 -12.787190 10.310380 11.492292 0.000000 0.000000 0.000000 7.125000 0.000000 0.000000 12.761877 41.412129 1.150013
0.315132 15.975879 6.289925 0.454632 -2.485885 9.208178 0.000000 0.000000 0.000000 -20.265921 -18.971251 4.772957 0.002843 0.345964 0.950641 -1.438576 21.102309 -12.772687 0.002500 0.322454 0.886027 0.000000 0.000000 0.000000 18.165739 12.188367 -7.122331 -0.914021 -6.091675 17.050624 -0.238089 -9.355553 -16.858982 -0.026289 1.046722 -2.877431 0.789893 -1.246946 -6.165711 0.322262 -1.684831 -8.791699 -0.123085 -0.886071 -5.703515 7.208778 2.011356 -10.576339 -5.329869 2.978460 35.734206 -3.015250 1.546439 14.158983 0.000000 0.000000 0.000000 -0.863761 14.178674 -7.196287 14.482035 -23.419618 3.017047 -2.771955 19.752838 -16.014980 0.000000 0.000000 0.000000 -7.125000 0.000000 0.000000 -27.652348 44.064279 -0.694820 0.000000 0.000000 0.000000 -1.942298 8.026531 11.740299 -11.696600 -19.348076 -2.000593 -9.645643 10.565725 13.226449 0.000000 0.000000 0.000000 7.125000 0.000000 0.000000 15.959144 42.812678 0.885590
0.313035 15.976600 6.290285 0.458509 -2.497595 9.228575 0.000000 0.000000 0.000000 -20.267684 -18.918714 4.877547 0.001516 0.253973 0.697703 -1.449282 21.140576 -12.617033 0.002384 0.314528 0.864326 0.000000 0.000000 0.000000 18.162500 12.190982 -7.146427 -0.912733 -6.087615 17.038860 -0.237235 -9.344954 -16.836222 -0.026700 1.054598 -2.898994 0.834509 -1.222809 -6.201613 0.335058 -1.653262 -8.824869 -0.134662 -0.872771 -5.719778 7.244043 2.031972 -10.430304 -5.429552 3.040161 35.462427 -3.044447 1.564513 14.008474 0.000000 0.000000 0.000000 -0.767394 14.413381 -11.076348 15.672396 -25.074304 3.506046 -5.099640 12.639706 -16.697603 0.000000 0.000000 0.000000 -7.125000 0.000000 0.000000 -29.912340 44.394531 -0.493540 0.000000 0.000000 0.000000 -1.906731 8.020537 13.478479 -12.079404 -19.923592 -2.129307 -5.730018 3.731344 14.778843 0.000000 0.000000 0.000000 7.125000 0.000000 0.000000 19.874835 43.883632 0.570913
